<svg width="520" height="300" viewBox="0 0 520 300" fill="none" xmlns="http://www.w3.org/2000/svg">
  <circle cx="394" cy="84" r="60" fill="#FFFFFF" fill-opacity="0.42"/>
  <circle cx="446" cy="176" r="78" fill="#FFFFFF" fill-opacity="0.24"/>
  <rect x="64" y="64" width="170" height="156" rx="24" fill="#FFFFFF" fill-opacity="0.92"/>
  <rect x="90" y="94" width="56" height="100" rx="14" fill="#153C66"/>
  <rect x="156" y="128" width="50" height="66" rx="14" fill="#2E7CF6"/>
  <path d="M286 194C286 167.49 307.49 146 334 146H412C438.51 146 460 167.49 460 194V198C460 203.523 455.523 208 450 208H296C290.477 208 286 203.523 286 198V194Z" fill="#FFFFFF" fill-opacity="0.9"/>
  <circle cx="334" cy="124" r="28" fill="#153C66"/>
  <circle cx="412" cy="124" r="28" fill="#2E7CF6"/>
  <path d="M282 86H372" stroke="#153C66" stroke-width="18" stroke-linecap="round"/>
  <path d="M282 116H432" stroke="#FFFFFF" stroke-width="14" stroke-linecap="round" stroke-opacity="0.72"/>
</svg>
