<svg width="520" height="280" viewBox="0 0 520 280" fill="none" xmlns="http://www.w3.org/2000/svg">
  <rect width="520" height="280" rx="28" fill="#F4F8FF"/>
  <rect x="34" y="30" width="452" height="220" rx="24" fill="url(#paint0_linear)"/>
  <rect x="72" y="72" width="172" height="132" rx="18" fill="white" fill-opacity="0.94"/>
  <rect x="270" y="72" width="178" height="54" rx="16" fill="#E9F3FF"/>
  <rect x="270" y="142" width="178" height="62" rx="16" fill="#FFF0E2"/>
  <rect x="94" y="96" width="126" height="16" rx="8" fill="#0F67D8" fill-opacity="0.16"/>
  <rect x="94" y="124" width="102" height="11" rx="5.5" fill="#C9D8EA"/>
  <rect x="94" y="144" width="88" height="11" rx="5.5" fill="#C9D8EA"/>
  <rect x="94" y="170" width="74" height="22" rx="11" fill="#1E7CF2"/>
  <rect x="292" y="90" width="96" height="12" rx="6" fill="#0F67D8" fill-opacity="0.16"/>
  <rect x="292" y="156" width="122" height="12" rx="6" fill="#FF8A1D" fill-opacity="0.22"/>
  <circle cx="423" cy="98" r="18" fill="#1E7CF2"/>
  <circle cx="421" cy="169" r="18" fill="#FF8A1D"/>
  <defs>
    <linearGradient id="paint0_linear" x1="34" y1="30" x2="486" y2="250" gradientUnits="userSpaceOnUse">
      <stop stop-color="#DDEBFF"/>
      <stop offset="1" stop-color="#FDFEFE"/>
    </linearGradient>
  </defs>
</svg>
